<mxfile host="app.diagrams.net" modified="2024-05-29T18:14:45.089Z" agent="Mozilla/5.0 (Macintosh; Intel Mac OS X 10_15_7) AppleWebKit/537.36 (KHTML, like Gecko) Chrome/125.0.0.0 Safari/537.36" etag="4N_z5DdE3EYLjz8PIE_2" version="24.4.10" type="device">
  <diagram id="_uuIN3uyb_vN-ZzZcdoV" name="Seite-3">
    <mxGraphModel dx="1158" dy="729" grid="1" gridSize="10" guides="1" tooltips="1" connect="1" arrows="1" fold="1" page="0" pageScale="1" pageWidth="827" pageHeight="1169" math="0" shadow="0">
      <root>
        <mxCell id="0" />
        <mxCell id="1" parent="0" />
        <mxCell id="mwM7OwOP8IIw1r8pnNSO-1" value="" style="html=1;whiteSpace=wrap;" parent="1" vertex="1">
          <mxGeometry x="-80" y="50" width="480" height="710" as="geometry" />
        </mxCell>
        <mxCell id="mwM7OwOP8IIw1r8pnNSO-2" value="student_irq_ctrl" style="html=1;whiteSpace=wrap;" parent="1" vertex="1">
          <mxGeometry x="180" y="120" width="120" height="60" as="geometry" />
        </mxCell>
        <mxCell id="mwM7OwOP8IIw1r8pnNSO-4" value="student_rlight&lt;span style=&quot;color: rgba(0, 0, 0, 0); font-family: monospace; font-size: 0px; text-align: start; text-wrap: nowrap;&quot;&gt;%3CmxGraphModel%3E%3Croot%3E%3CmxCell%20id%3D%220%22%2F%3E%3CmxCell%20id%3D%221%22%20parent%3D%220%22%2F%3E%3CmxCell%20id%3D%222%22%20value%3D%22student_irq_ctrl%22%20style%3D%22html%3D1%3BwhiteSpace%3Dwrap%3B%22%20vertex%3D%221%22%20parent%3D%221%22%3E%3CmxGeometry%20x%3D%22180%22%20y%3D%22120%22%20width%3D%22120%22%20height%3D%2260%22%20as%3D%22geometry%22%2F%3E%3C%2FmxCell%3E%3C%2Froot%3E%3C%2FmxGraphModel%3E&lt;/span&gt;" style="html=1;whiteSpace=wrap;" parent="1" vertex="1">
          <mxGeometry x="180" y="210" width="120" height="60" as="geometry" />
        </mxCell>
        <mxCell id="mwM7OwOP8IIw1r8pnNSO-5" value="project_audio_&lt;div&gt;decoder&lt;span style=&quot;color: rgba(0, 0, 0, 0); font-family: monospace; font-size: 0px; text-align: start; text-wrap: nowrap;&quot;&gt;%3CmxGraphModel%3E%3Croot%3E%3CmxCell%20id%3D%220%22%2F%3E%3CmxCell%20id%3D%221%22%20parent%3D%220%22%2F%3E%3CmxCell%20id%3D%222%22%20value%3D%22student_irq_ctrl%22%20style%3D%22html%3D1%3BwhiteSpace%3Dwrap%3B%22%20vertex%3D%221%22%20parent%3D%221%22%3E%3CmxGeometry%20x%3D%22180%22%20y%3D%22120%22%20width%3D%22120%22%20height%3D%2260%22%20as%3D%22geometry%22%2F%3E%3C%2FmxCell%3E%3C%2Froot%3E%3C%2FmxGraphMode_au&lt;/span&gt;&lt;/div&gt;" style="html=1;whiteSpace=wrap;fillColor=#99FF33;" parent="1" vertex="1">
          <mxGeometry x="180" y="305" width="120" height="60" as="geometry" />
        </mxCell>
        <mxCell id="mwM7OwOP8IIw1r8pnNSO-6" value="student_tlul_mux&lt;span style=&quot;color: rgba(0, 0, 0, 0); font-family: monospace; font-size: 0px; text-align: start; text-wrap: nowrap;&quot;&gt;%3CmxGraphModel%3E%3Croot%3E%3CmxCell%20id%3D%220%22%2F%3E%3CmxCell%20id%3D%221%22%20parent%3D%220%22%2F%3E%3CmxCell%20id%3D%222%22%20value%3D%22student_irq_ctrl%22%20style%3D%22html%3D1%3BwhiteSpace%3Dwrap%3B%22%20vertex%3D%221%22%20parent%3D%221%22%3E%3CmxGeometry%20x%3D%22180%22%20y%3D%22120%22%20width%3D%22120%22%20height%3D%2260%22%20as%3D%22geometry%22%2F%3E%3C%2FmxCell%3E%3C%2Froot%3E%3C%2FmxGraphModel&lt;/span&gt;" style="html=1;whiteSpace=wrap;" parent="1" vertex="1">
          <mxGeometry y="140" width="110" height="450" as="geometry" />
        </mxCell>
        <mxCell id="mwM7OwOP8IIw1r8pnNSO-7" value="..." style="html=1;whiteSpace=wrap;" parent="1" vertex="1">
          <mxGeometry x="180" y="480" width="120" height="60" as="geometry" />
        </mxCell>
        <mxCell id="mwM7OwOP8IIw1r8pnNSO-9" value="project_filtering_IP" style="html=1;whiteSpace=wrap;fillColor=#99FF33;" parent="1" vertex="1">
          <mxGeometry x="180" y="390" width="120" height="60" as="geometry" />
        </mxCell>
        <mxCell id="mwM7OwOP8IIw1r8pnNSO-11" value="" style="html=1;shadow=0;dashed=0;align=center;verticalAlign=middle;shape=mxgraph.arrows2.twoWayArrow;dy=0.65;dx=22;strokeColor=#000000;fillColor=#000000;" parent="1" vertex="1">
          <mxGeometry x="110" y="320" width="70" height="30" as="geometry" />
        </mxCell>
        <mxCell id="mwM7OwOP8IIw1r8pnNSO-16" value="" style="html=1;shadow=0;dashed=0;align=center;verticalAlign=middle;shape=mxgraph.arrows2.twoWayArrow;dy=0.65;dx=22;strokeColor=#000000;fillColor=#000000;" parent="1" vertex="1">
          <mxGeometry x="110" y="405" width="70" height="30" as="geometry" />
        </mxCell>
        <mxCell id="mwM7OwOP8IIw1r8pnNSO-17" value="" style="html=1;shadow=0;dashed=0;align=center;verticalAlign=middle;shape=mxgraph.arrows2.twoWayArrow;dy=0.65;dx=22;strokeColor=#000000;fillColor=#000000;" parent="1" vertex="1">
          <mxGeometry x="110" y="230" width="70" height="30" as="geometry" />
        </mxCell>
        <mxCell id="mwM7OwOP8IIw1r8pnNSO-18" value="" style="html=1;shadow=0;dashed=0;align=center;verticalAlign=middle;shape=mxgraph.arrows2.twoWayArrow;dy=0.65;dx=22;strokeColor=#000000;fillColor=#000000;" parent="1" vertex="1">
          <mxGeometry x="110" y="150" width="70" height="30" as="geometry" />
        </mxCell>
        <mxCell id="mwM7OwOP8IIw1r8pnNSO-20" value="" style="html=1;shadow=0;dashed=0;align=center;verticalAlign=middle;shape=mxgraph.arrows2.arrow;dy=0.67;dx=20;notch=0;fillColor=#000000;" parent="1" vertex="1">
          <mxGeometry x="-100" y="305" width="100" height="60" as="geometry" />
        </mxCell>
        <mxCell id="mwM7OwOP8IIw1r8pnNSO-21" value="student_dma" style="html=1;whiteSpace=wrap;" parent="1" vertex="1">
          <mxGeometry x="180" y="560" width="120" height="100" as="geometry" />
        </mxCell>
        <mxCell id="mwM7OwOP8IIw1r8pnNSO-22" value="" style="html=1;shadow=0;dashed=0;align=center;verticalAlign=middle;shape=mxgraph.arrows2.twoWayArrow;dy=0.65;dx=22;strokeColor=#000000;fillColor=#000000;" parent="1" vertex="1">
          <mxGeometry x="110" y="490" width="70" height="30" as="geometry" />
        </mxCell>
        <mxCell id="mwM7OwOP8IIw1r8pnNSO-23" value="" style="html=1;shadow=0;dashed=0;align=center;verticalAlign=middle;shape=mxgraph.arrows2.twoWayArrow;dy=0.65;dx=22;strokeColor=#000000;fillColor=#000000;" parent="1" vertex="1">
          <mxGeometry x="110" y="560" width="70" height="30" as="geometry" />
        </mxCell>
        <mxCell id="mwM7OwOP8IIw1r8pnNSO-24" value="" style="html=1;shadow=0;dashed=0;align=center;verticalAlign=middle;shape=mxgraph.arrows2.arrow;dy=0.67;dx=20;notch=0;fillColor=#000000;" parent="1" vertex="1">
          <mxGeometry x="-100" y="610" width="280" height="60" as="geometry" />
        </mxCell>
        <mxCell id="mwM7OwOP8IIw1r8pnNSO-25" value="Student&lt;span style=&quot;color: rgba(0, 0, 0, 0); font-family: monospace; font-size: 0px; font-weight: 400; text-align: start;&quot;&gt;%3CmxGraphModel%3E%3Croot%3E%3CmxCell%20id%3D%220%22%2F%3E%3CmxCell%20id%3D%221%22%20parent%3D%220%22%2F%3E%3CmxCell%20id%3D%222%22%20value%3D%22%22%20style%3D%22html%3D1%3Bshadow%3D0%3Bdashed%3D0%3Balign%3Dcenter%3BverticalAlign%3Dmiddle%3Bshape%3Dmxgraph.arrows2.arrow%3Bdy%3D0.67%3Bdx%3D20%3Bnotch%3D0%3BfillColor%3D%23000000%3B%22%20vertex%3D%221%22%20parent%3D%221%22%3E%3CmxGeometry%20x%3D%22-100%22%20y%3D%22305%22%20width%3D%22100%22%20height%3D%2260%22%20as%3D%22geometry%22%2F%3E%3C%2FmxCell%3E%3C%2Froot%3E%3C%2FmxGraphModel%3E&lt;/span&gt;" style="text;align=center;fontStyle=1;verticalAlign=middle;spacingLeft=3;spacingRight=3;strokeColor=none;rotatable=0;points=[[0,0.5],[1,0.5]];portConstraint=eastwest;html=1;" parent="1" vertex="1">
          <mxGeometry x="180" y="60" width="80" height="26" as="geometry" />
        </mxCell>
        <mxCell id="mwM7OwOP8IIw1r8pnNSO-26" value="tl_device_peri" style="text;align=center;fontStyle=1;verticalAlign=middle;spacingLeft=3;spacingRight=3;strokeColor=none;rotatable=0;points=[[0,0.5],[1,0.5]];portConstraint=eastwest;html=1;" parent="1" vertex="1">
          <mxGeometry x="-110" y="294" width="80" height="26" as="geometry" />
        </mxCell>
        <mxCell id="mwM7OwOP8IIw1r8pnNSO-27" value="tl_device_fast" style="text;align=center;fontStyle=1;verticalAlign=middle;spacingLeft=3;spacingRight=3;strokeColor=none;rotatable=0;points=[[0,0.5],[1,0.5]];portConstraint=eastwest;html=1;" parent="1" vertex="1">
          <mxGeometry x="-100" y="597" width="80" height="26" as="geometry" />
        </mxCell>
      </root>
    </mxGraphModel>
  </diagram>
</mxfile>
